<svg width="190" height="254" xmlns="http://www.w3.org/2000/svg" xmlns:xlink="http://www.w3.org/1999/xlink" overflow="hidden"><defs><clipPath id="clip0"><rect x="0" y="0" width="190" height="254"/></clipPath></defs><g clip-path="url(#clip0)"><path d="M184.396 0C187.327-1.88557e-15 189.703 2.37621 189.703 5.30742L189.703 248.18C189.703 251.111 187.327 253.487 184.396 253.487L5.30741 253.487C2.37621 253.487-4.04924e-06 251.111-4.04924e-06 248.18L-4.04924e-06 5.30741C-4.04924e-06 2.3762 2.37621-7.59232e-06 5.30741-7.59232e-06Z" fill="#4C2F00" transform="matrix(1.00157 0 0 1 0 0.25628)"/><path d="M60.6797 8.22649C54.7301 8.00358 48.8548 9.13937 42.9741 9.93017 34.8379 11.0288 26.7122 12.2548 18.576 13.4649 17.6365 13.6029 17.0633 13.1783 16.453 12.6263 15.3915 11.671 15.0253 11.6922 14.4521 12.9076 14.0753 13.7791 13.2302 14.3556 12.2814 14.3884 8.49186 14.8608 4.69706 15.6144 0.875723 15.8426L0 15.8745 0 18.1036C8.49186 17.3924 16.9837 16.7661 25.5658 16.9837 29.1112 17.0686 31.7543 17.9497 33.4898 21.1925 34.4231 22.7744 35.4884 24.2747 36.6742 25.6773 37.4146 26.4807 37.5658 27.6645 37.0511 28.6282 36.4036 30.0718 36.6052 30.3796 38.1125 30.2204 39.4235 30.0771 40.1665 30.5813 40.8246 31.6481 42.0666 33.6649 43.3987 35.6234 44.7468 37.5712 45.4527 38.5955 45.3412 39.4182 44.5027 40.3098 42.8497 42.1973 40.7113 43.596 38.3195 44.3541 25.5888 48.0834 12.8157 51.65 0 55.0538L0 57.1768C0.37919 57.2893 0.730152 57.4809 1.02964 57.7394 1.37462 58.0313 1.63468 58.0525 1.77798 57.5112 1.96905 56.8053 2.5741 56.4497 3.16322 56.1312 6.61835 54.1516 10.4131 53.1272 14.2451 52.2356 21.4685 50.5531 28.6866 48.8494 35.8251 46.822 37.3691 46.3802 38.8861 45.8486 40.3682 45.2298 42.7725 44.2373 45.32 44.5504 47.7986 44.8105 52.8247 45.3412 52.8672 45.4102 53.313 50.4151 53.642 54.1303 53.8437 57.8084 54.0242 61.5129 54.1409 63.9384 51.3174 67.0327 48.8972 67.2078 47.7933 67.2874 47.6128 67.9137 48.1489 68.6143 48.9715 69.7023 48.5841 70.5568 48.0215 71.5333 46.7106 73.8208 45.4315 76.1243 43.6853 78.1305 43.2411 78.7716 42.4469 79.0715 41.6897 78.8841 40.7079 78.6506 39.7313 78.9372 38.7601 79.0486 37.7888 79.1601 36.7485 79.4626 35.7348 79.0486 35.5242 78.9605 35.2873 78.9605 35.0767 79.0486 31.8551 80.8426 28.2673 80.28 24.844 80.5135 16.5591 81.0761 8.29018 81.8244 0 82.18L0 87.445C1.09365 86.3203 2.26794 85.2774 3.51351 84.3242 4.11809 83.8434 4.86411 83.5748 5.63647 83.5599 13.1836 83.2999 20.7255 82.9549 28.2726 82.7638 38.86 82.5844 49.4208 81.6424 59.8729 79.9456 62.378 79.521 64.915 79.2663 67.436 78.8841 68.109 78.787 68.7852 79.0391 69.2299 79.5528 69.835 80.1473 70.4294 80.7576 71.061 81.3202 71.8199 81.9996 72.6532 81.8934 72.77 80.8956 73.1415 78.088 75.0681 77.8014 77.3344 77.5732 82.8434 77.0106 88.326 76.1349 93.8722 76.034 97.4229 75.9703 100.411 77.6263 103.272 79.4945 103.831 79.9536 104.228 80.5809 104.402 81.2831 105.289 83.7192 105.915 86.2349 106.599 88.7134 106.891 89.7749 106.435 90.6241 105.978 91.5051 105.241 92.9275 105.347 93.2301 106.913 93.6281 107.581 93.7714 108.075 94.3372 108.128 95.0187 108.844 98.288 109.561 101.563 110.331 104.827 110.594 105.711 110.208 106.66 109.402 107.109 107.275 108.511 105.069 109.789 102.794 110.936 100.56 112.156 98.3358 113.398 96.0695 114.561 93.6812 115.787 91.0116 115.967 88.4268 116.434 86.41 116.8 84.3614 117.044 82.318 117.251 80.9938 117.445 79.6415 117.261 78.4171 116.721 77.0955 116.105 75.5139 116.461 74.0544 116.636 67.038 117.48 60.1489 119.067 53.2228 120.409 50.24 120.988 47.3846 120.542 44.439 120.234 40.5327 119.831 36.6265 119.401 32.7149 118.982 31.0961 118.806 31.0218 118.653 31.9188 117.246 32.0833 116.986 32.2585 116.715 32.5504 116.291 32.3296 116.296 32.1103 116.327 31.8976 116.386 27.5826 118.806 23.0183 118.122 18.438 117.533 14.054 116.97 9.6648 116.445 5.25965 116.025 3.61212 115.835 2.08435 115.07 0.94472 113.865 0.148608 113.106 0.753653 112.501 1.01372 111.822 1.27378 111.143 2.18135 110.532 1.76737 109.98 1.41708 109.519 0.647505 109.832 0.0265371 110.049L0.0265371 117.91C3.48697 118.637 6.95271 119.337 10.4131 120.064 10.8131 120.105 11.2018 120.22 11.5596 120.404 14.6962 122.485 18.3743 122.341 21.8612 122.941 28.8989 124.156 36.0055 124.125 43.0909 124.002 45.0575 123.938 47.0254 124.084 48.9609 124.438 50.0595 124.655 50.6327 125.181 50.6274 126.439 50.6273 128.558 50.7353 130.677 50.9512 132.786 51.0978 133.901 50.7531 135.024 50.0065 135.865 49.6648 136.277 49.356 136.715 49.083 137.175 48.4514 138.237 48.6 138.561 49.7942 138.539 50.8238 138.539 51.2378 138.879 51.2802 139.903 51.3864 142.403 51.3811 144.903 51.2802 147.403 51.2378 148.878 50.4841 149.653 49.1573 150.12 45.9694 151.156 42.7063 151.944 39.3969 152.477 38.5637 152.636 37.7039 152.7 36.8918 152.917 33.5099 153.889 29.8896 153.59 26.7122 152.079 25.3748 151.463 25.2898 151.548 25.4597 153.061 25.5924 154.207 25.1147 154.695 24.0214 154.823 17.9444 155.534 11.8833 156.441 5.73201 156.224 4.52723 156.224 3.31713 156.165 2.11235 156.224 1.40295 156.308 0.683834 156.244 1.01231e-08 156.038L0 160.114C4.52723 160.565 9.05976 161.022 13.5711 161.637 15.0147 161.834 15.6197 162.471 16.0655 163.882 16.867 166.409 16.2938 168.181 14.0275 169.503 13.4799 169.878 12.9634 170.297 12.483 170.755L12.483 170.755C13.3481 170.84 14.1602 170.522 14.9881 170.379 16.9307 170.055 17.1111 170.193 17.2916 172.183 17.5569 175.431 17.8595 178.674 18.0611 181.928 18.369 187.055 18.5441 192.187 18.3849 197.319 18.2894 200.334 18.1885 200.408 15.2482 199.93 10.1637 199.102 5.0845 198.258 0 197.484L0 200.18C1.33747 200.243 2.65371 200.312 4.01241 200.371 5.73201 200.445 7.2287 200.822 8.50779 202.064 9.41005 202.94 10.6997 202.695 11.8302 202.865 19.9293 204.06 28.0921 204.309 36.2443 204.596 39.0137 204.642 41.773 204.944 44.4868 205.498 45.3595 205.588 46.074 206.231 46.2541 207.09 47.2327 210.849 47.9544 214.671 48.4142 218.528 48.5736 221.41 47.0168 224.116 44.4443 225.427 42.8839 226.144 41.1749 225.767 39.5509 225.645 27.4446 224.705 15.3968 223.182 3.34367 221.728 2.53181 221.672 1.77216 221.308 1.22071 220.709 0.922312 220.293 0.49216 219.99 1.01231e-07 219.849L0 225.687C0.585854 225.963 1.15317 226.277 1.69837 226.627 2.99869 227.423 3.72581 228.367 3.60373 229.981 3.50024 231.586 3.50024 233.195 3.60373 234.8 3.67804 236.153 3.01992 236.859 1.88413 237.348 1.25786 237.613 0.631582 237.847 0 238.053L0 241.392C3.18445 241.031 6.3689 240.888 9.51089 240.521 11.003 240.224 12.5003 241.009 13.104 242.406 13.2685 242.713 13.4914 242.989 13.7144 243.329 13.863 243.191 14.0063 243.122 14.0275 243.027 14.5582 240.537 14.5582 240.405 16.9943 240.373 20.3062 240.32 23.6074 240.028 26.9192 240.012 28.0232 240.012 29.1271 240.012 30.231 240.102L34.201 240.038C34.8873 239.916 35.5898 239.916 36.2762 240.038 36.4089 240.038 36.5256 240.081 36.4726 240.261 36.4985 240.12 36.6117 240.011 36.7538 239.991L36.8918 239.964C38.5212 239.587 40.0763 239.571 41.3554 240.893 42.1303 241.684 42.9051 241.7 43.5739 240.734 44.1365 239.911 44.9167 239.72 45.8826 239.704 50.845 239.624 55.8022 239.529 60.4833 241.583 61.2401 241.962 62.0203 242.294 62.8186 242.575 66.2737 243.6 67.3458 246.084 67.5156 249.449 67.5846 250.813 67.643 252.177 67.7067 253.541L71.7616 253.541C71.9187 253.303 72.0965 253.079 72.2923 252.872 73.4122 251.752 73.2954 251.396 71.8465 250.844 71.2266 250.672 70.8322 250.064 70.9283 249.427 70.9601 248.488 70.9283 247.548 70.9283 246.609 70.9283 244.592 71.459 243.839 73.4122 243.165 75.3711 242.531 77.4145 242.198 79.4732 242.177 85.2371 242.008 90.9956 242.114 96.7542 242.416 97.5529 242.505 98.3087 242.824 98.9302 243.334 99.5565 243.764 100.177 244.205 100.788 244.656 101.621 245.272 102.152 245.043 102.205 244.046 102.269 242.851 102.884 242.745 103.903 242.809 110.224 243.234 116.551 243.626 122.856 244.3 125.032 244.529 127.267 244.629 129.342 245.229 132.9 246.305 136.159 248.197 138.858 250.754 139.583 251.5 139.989 252.5 139.988 253.541L143.528 253.541C143.73 252.054 143.916 250.568 144.059 249.082 144.165 247.973 144.685 247.533 145.715 247.379 147.78 247.065 149.834 246.689 152.201 246.291 150.938 245.51 149.881 244.9 148.878 244.221 147.62 243.372 147.583 242.995 148.613 241.933 149.964 240.565 151.467 239.356 153.092 238.329 155.115 237.003 157.407 236.923 159.674 236.87 169.673 236.642 179.672 236.721 189.671 236.801L189.671 232.109C189.484 231.796 189.367 231.447 189.326 231.085 189.077 229.217 188.143 227.402 189.204 225.475 189.353 225.199 189.512 224.944 189.671 224.658L189.671 219.738C189.288 220.047 188.872 220.312 188.429 220.528 187.946 220.82 187.716 221.397 187.867 221.94 187.959 222.84 187.67 223.737 187.07 224.413 186.29 225.448 185.531 226.499 184.783 227.555 183.513 229.477 181.506 230.789 179.237 231.18 175.983 231.77 172.767 232.539 169.54 233.266 168.444 233.475 167.315 233.44 166.234 233.165 165.358 232.98 164.477 232.82 163.58 232.672 162.932 232.56 162.439 232.746 162.694 233.516 162.996 234.413 162.518 234.577 161.807 234.726 157.768 235.495 153.729 236.27 149.648 236.737 146.373 237.119 143.157 236.344 139.93 235.915 139.123 235.808 138.943 235.32 139.012 234.582 139.065 234.052 139.399 233.569 139.198 232.937 139.012 233.006 138.89 233.006 138.858 233.065 137.457 235.315 135.578 234.922 133.381 234.381 129.941 233.526 127.797 231.642 126.571 228.304 125.154 224.445 123.684 220.608 122.325 216.723 121.835 215.562 121.952 214.234 122.638 213.178 123.058 212.509 123.371 211.771 123.7 211.108 123.456 210.768 123.249 210.89 123.052 210.975 120.876 211.888 120.845 211.899 120.335 209.547 120.022 208.109 119.762 206.655 119.571 205.195 119.348 203.523 119.714 203.025 121.349 202.648 126.269 201.523 131.258 200.742 136.21 199.867 136.834 199.757 137.474 199.923 137.966 200.323 138.922 201.018 139.755 201.008 140.524 200.042 141.2 199.265 142.152 198.783 143.178 198.699 153.459 197.075 163.734 195.446 174.041 194.018 177.565 193.53 180.988 194.225 184.422 194.772 186.168 195.035 187.895 195.415 189.591 195.907L189.591 190.319 189.56 190.319C187.86 189.159 186.297 187.811 184.9 186.301 184.162 185.521 183.966 184.751 184.544 183.78 185.606 182.018 186.587 180.213 187.628 178.446 188.082 177.668 188.768 177.054 189.591 176.689L189.591 165.591C188.36 167.858 186.996 170.05 185.685 172.268 184.051 175.039 182.501 177.857 180.792 180.59 178.472 184.336 175.268 187.454 171.461 189.671 169.307 190.934 166.642 190.929 164.185 191.343 154.892 192.935 145.54 194.097 136.199 195.355 135.402 195.503 134.584 195.228 134.039 194.628 132.776 193.365 132.447 193.455 131.99 195.159 131.888 195.752 131.377 196.188 130.775 196.194 126.64 196.571 122.522 197.128 118.35 197.096 117.257 197.096 116.71 196.693 116.524 195.626 116.206 193.774 115.829 191.911 115.463 190.101 115.365 189.477 115.51 188.839 115.866 188.318 116.625 187.001 117.384 185.664 118.127 184.358 118.27 184.104 118.483 183.775 118.127 183.52 117.894 183.334 117.596 183.483 117.373 183.599L116.774 183.897C114.651 184.958 114.614 184.958 114.354 182.649 114.125 180.654 113.966 178.653 113.77 176.652 113.677 175.663 113.949 174.674 114.534 173.871 117.66 169.456 121.186 165.339 125.069 161.574 125.95 160.703 127.075 160.448 128.254 160.305 134.771 159.505 141.289 158.704 147.806 157.901 148.476 157.883 149.138 157.752 149.765 157.513 153.756 155.46 158.172 155.603 162.433 154.982 163.797 154.785 165.188 154.727 166.626 154.605 170.214 154.732 173.712 155.741 177.241 156.372 178.143 156.532 177.92 157.073 177.682 157.673 177.443 158.272 176.663 158.984 177.188 159.461 177.713 159.939 178.536 159.249 179.062 158.867 180.951 157.513 182.888 157.407 185.016 158.193 186.508 158.75 188.052 159.138 189.565 159.642L189.565 154.531C188.562 154.451 187.564 154.366 186.561 154.271 184.714 154.095 183.148 153.74 182.113 152.079 181.887 151.68 181.444 151.454 180.988 151.505 176.121 151.819 171.398 150.858 166.658 149.913 165.39 149.653 164.859 148.937 164.71 147.732 164.312 144.36 164.105 140.969 164.089 137.574 164.104 136.851 164.424 136.168 164.97 135.695 165.82 134.835 165.989 133.911 165.146 132.972 164.211 131.91 164.026 130.722 164.084 129.368 164.12 127.091 164.297 124.819 164.615 122.564 164.643 121.674 165.386 120.975 166.276 120.998 167.035 120.956 167.794 120.903 168.548 120.829 171.292 120.558 171.286 120.558 171.923 123.217 172.035 123.679 172.167 124.135 172.385 124.963 172.916 123.61 173.351 122.601 173.706 121.561 173.858 120.936 174.453 120.523 175.092 120.6 179.921 120.54 184.75 120.473 189.576 120.399L189.576 111.456C188.872 110.951 188.399 110.187 188.259 109.333 187.851 107.496 187.686 105.618 187.458 103.776 187.179 102.637 187.875 101.487 189.014 101.208 189.015 101.208 189.017 101.208 189.018 101.207 189.208 101.134 189.395 101.051 189.576 100.958L189.576 100.193C189.406 100.193 189.236 100.193 189.045 100.193 188.217 100.156 187.766 99.8909 187.675 98.9514 187.426 96.3296 187.086 93.7183 186.763 91.1071 186.672 90.5222 186.913 89.9357 187.389 89.5839 188.043 89.0494 188.773 88.6147 189.554 88.2942L189.554 85.9801C188.031 85.9483 186.561 85.7094 185.277 84.5365 184.82 84.1225 184.56 84.3242 184.279 84.839 183.085 87.0628 180.447 87.2061 178.913 85.1522 178.382 84.441 177.894 83.6979 177.231 82.7373 176.87 83.7988 176.578 84.648 176.296 85.4971 176.12 86.3092 175.386 86.8771 174.556 86.8452 170.586 87.0363 166.621 87.3176 162.651 87.5352 160.379 87.6573 158.097 87.6679 155.826 87.8112 154.608 87.894 153.415 87.4381 152.562 86.5639 150.018 84.1804 147.707 81.5585 145.662 78.7355 145.122 77.967 144.725 77.1077 144.489 76.1986 142.817 70.1269 141.188 64.0446 139.776 57.9039 139.209 55.4147 140.766 52.9367 143.256 52.3693 143.792 52.2469 144.347 52.2214 144.892 52.294 150.232 52.761 155.544 53.4987 160.857 54.2099 162.009 54.384 163.103 54.8357 164.042 55.5262 165.724 56.6991 167.518 57.1662 169.487 56.4868 173.335 55.1494 177.167 55.8552 181.004 56.4868L189.682 57.9676 189.682 56.11C187.707 56.0092 185.802 55.3935 183.875 54.9583 180.128 54.1144 176.445 53.0848 172.73 52.1294 171.44 51.7951 170.432 50.9406 169.391 50.1816 167.852 49.0617 166.117 48.4408 164.344 49.0883 159.254 50.9512 154.218 50.0171 149.149 49.152 145.89 48.6212 142.631 48.0905 139.357 47.6022 138.248 47.4483 137.69 46.9759 137.558 45.872 137.308 43.8339 137 41.8012 136.714 39.7685 136.665 38.9572 136.895 38.1536 137.367 37.4916 137.643 37.0033 137.945 36.5309 138.29 35.9683 136.231 36.0639 136.241 36.0639 136.167 34.0258 136.103 32.6406 136.066 31.2554 135.902 29.8807 135.737 28.5061 136.337 27.8799 137.494 27.4977 140.493 26.4526 143.626 25.8397 146.798 25.6773 157.02 25.3217 167.247 25.0828 177.469 24.7644 181.551 24.637 185.632 24.5415 189.714 24.4566L189.714 21.3252 179.81 21.6808C175.484 21.84 171.154 21.978 166.828 22.2115 165.746 22.3506 164.699 21.7701 164.243 20.7785 162.9 18.4486 162.423 18.4592 161.128 20.8104 160.512 21.9302 159.785 22.5406 158.416 22.5618 155.067 22.6043 151.723 22.79 148.374 22.9333 147.655 22.9829 146.939 22.7966 146.336 22.4026 142.658 19.8657 140.408 16.4795 140.471 11.8886 140.471 10.6679 141.002 9.45781 141.241 8.2318 141.719 5.5075 142.052 2.7597 142.239 1.21477e-07L139.649 0C139.529 2.55725 138.907 5.06589 137.818 7.38261L136.846 9.28798C135.955 11.0447 134.644 11.7878 132.558 11.8143 127.956 11.878 123.36 12.0531 118.759 11.7135 117.461 11.6797 116.18 11.4081 114.98 10.912 114.322 10.6042 113.642 10.238 113.388 9.54273 113.011 8.48125 112.618 8.48125 111.864 9.22429 110.177 10.8165 108.245 11.3101 105.846 11.0023 97.2531 9.90894 88.6922 8.59801 80.1526 7.12255 79.0062 6.90707 77.9288 6.41927 77.0106 5.70016 76.3312 5.16942 75.689 4.63868 74.9991 4.13978 73.4605 3.10633 72.2297 1.67589 71.4378 1.01231e-07L68.8956 0C68.8303 0.62377 68.7241 1.24255 68.5771 1.85229 67.6961 5.46133 65.6103 8.41225 60.6797 8.22649ZM45.6438 235.357C45.5535 236.419 44.8689 236.812 43.9401 236.896 42.4699 237.024 41.0051 237.141 39.5296 237.204 32.7521 237.512 25.9745 237.799 19.1916 238.101 17.679 238.17 16.1611 238.276 14.0275 238.398 11.204 238.876 8.68824 236.955 6.15129 235.113 5.38644 234.537 4.95867 233.618 5.0102 232.661 5.03635 230.919 5.23367 229.184 5.59932 227.481 5.75855 226.611 6.95271 226.101 8.11504 226.42 9.06177 226.682 9.9937 226.996 10.9067 227.359 11.7559 227.693 12.0054 227.444 11.7347 226.611 11.4056 225.602 11.8355 225.379 12.7962 225.443 21.7498 226.053 30.7087 226.531 39.6145 227.662 42.5655 228.038 45.8826 232.337 45.6438 235.357ZM127.426 239.518C128.32 238.738 129.477 238.326 130.663 238.367 133.142 238.733 135.79 239.136 138.439 239.513 139.32 239.635 140.217 239.651 141.092 239.757 142.398 239.916 142.801 240.442 142.605 241.753 142.385 243.041 141.747 244.222 140.79 245.112 140.047 245.85 139.145 245.643 138.269 245.367 136.199 244.773 134.325 243.711 132.367 242.841 131.016 242.144 129.548 241.705 128.036 241.546 127.505 241.519 127.028 241.376 126.879 240.813 126.793 240.317 126.997 239.814 127.405 239.518ZM56.524 77.0159C56.4178 77.3715 56.0304 77.3344 55.7332 77.3556L50.8026 77.7112C50.5372 77.7112 50.2718 77.7112 50.0012 77.7112 49.412 77.6528 48.6372 78.0243 48.2869 77.3609 47.9366 76.6975 48.4832 76.0818 48.8601 75.5511 49.2339 75.0532 49.6551 74.5931 50.1179 74.1764 50.9187 73.2683 52.3038 73.1818 53.2116 73.9827 53.2206 73.9907 53.2297 73.9986 53.2387 74.0066 54.2513 74.7316 55.2125 75.5261 56.1153 76.3843 56.3011 76.5542 56.6089 76.7346 56.524 77.0159ZM105.278 114.523C106.033 112.938 107.335 111.679 108.945 110.978 109.808 110.498 110.897 110.798 111.392 111.652 112.359 113.15 113.076 114.796 113.515 116.524 113.812 117.501 113.043 117.342 112.135 117.347 110.4 117.103 108.324 116.848 106.265 116.503 104.97 116.291 104.689 115.702 105.278 114.523ZM19.3561 165.756C18.9156 163.734 19.1438 161.579 19.4517 159.488 19.5737 158.639 20.1151 158.426 20.8528 158.357 24.0957 158.039 27.3332 157.667 30.576 157.37 33.097 157.137 35.4801 156.632 37.6243 155.13 39.6623 153.703 42.1674 153.963 44.4868 153.65 47.3304 153.35 50.1883 153.206 53.0476 153.22 55.1706 153.177 56.8424 154.138 58.493 155.189 58.7823 155.379 59.019 155.638 59.183 155.942 59.4425 156.48 59.5752 157.07 59.5704 157.667 59.8252 158.198 59.9473 158.819 60.1808 159.376 60.2285 159.488 60.2763 159.599 60.3347 159.705 60.4472 159.924 60.5921 160.125 60.7646 160.3 60.8187 159.686 60.9344 159.08 61.1096 158.49 61.5501 157.179 62.3674 157.344 64.2303 158.676 64.4209 158.839 64.5981 159.016 64.7611 159.207L65.5625 159.737C65.8316 159.723 66.081 159.878 66.1888 160.125L66.2259 160.151C68.1143 161.161 69.9114 162.333 71.597 163.654 72.1702 164.084 72.7328 164.519 73.3007 164.954 73.7651 165.325 73.9976 165.916 73.9111 166.504 73.7471 169.721 73.0178 172.882 71.7562 175.845 71.3656 176.871 70.4007 177.564 69.3042 177.607 63.7527 178.138 58.2011 178.738 52.6496 179.3 50.654 179.502 48.6425 179.629 46.6522 179.863 45.3197 180.064 43.9637 179.701 42.9104 178.86 42.5938 178.614 42.2564 178.395 41.902 178.207 41.2864 177.873 40.6813 177.193 39.9595 177.549 39.1422 177.952 39.5562 178.828 39.588 179.497 39.6411 180.447 39.3226 180.861 38.3248 180.924 33.3359 181.248 28.3469 181.556 23.3367 181.524 22.0842 181.524 21.4473 181.025 21.1129 179.89 20.338 177.268 19.6374 174.545 19.8497 171.87 19.9898 169.819 19.8234 167.758 19.3561 165.756ZM48.0958 207.408C47.6924 206.74 48.2603 206.236 48.6265 205.763 49.7464 204.341 50.9406 203.03 53.0052 203.173 53.6951 203.221 54.3585 203.274 54.6823 204.006 55.0061 204.739 54.6823 205.317 54.2259 205.837 53.1007 207.108 51.5193 207.882 49.826 207.992 49.1732 207.934 48.462 208.003 48.0958 207.408ZM116.53 215.725C116.784 216.389 116.997 216.962 115.898 216.914 115.097 216.877 115.266 217.317 115.542 217.758 115.631 217.915 115.742 218.058 115.871 218.183 118.318 220.39 119.507 223.299 120.526 226.335 121.333 228.744 122.267 231.111 123.212 233.484 123.548 234.174 123.428 234.999 122.909 235.564 121.773 237.057 120.505 238.445 119.12 239.709 117.066 241.471 115.251 241.19 113.871 238.887 113.775 238.733 113.69 238.579 113.584 238.436 113.324 238.085 113.112 237.486 112.629 237.645 112.029 237.836 112.416 238.425 112.496 238.807 112.74 239.996 112.231 240.288 111.127 240.23 104.397 239.863 97.6671 239.465 90.9266 239.216 83.2521 238.929 75.5829 238.531 67.8925 238.552 64.0509 238.601 60.211 238.354 56.4072 237.815 55.834 237.724 55.2661 237.608 54.6982 237.486 53.4351 237.215 52.692 236.589 52.6124 235.14 52.4638 232.486 52.1719 229.806 51.8747 227.147 51.7264 226.112 52.1095 225.073 52.8937 224.382 54.0773 223.251 55.2714 222.126 56.4603 220.995L56.1631 220.693C55.0538 221.001 53.9446 221.325 52.83 221.616 51.9118 221.855 51.3652 221.616 51.3705 220.528 51.3705 217.981 51.3705 215.439 51.3439 212.891 51.3524 212.129 51.5951 211.387 52.0392 210.768 53.6681 208.306 55.6636 206.109 57.957 204.251 58.6576 203.688 59.5444 203.409 60.4408 203.47 68.5187 203.667 76.6019 203.853 84.6851 203.975 85.8315 203.975 86.479 204.537 87.1424 205.312 88.1774 206.527 88.5648 206.543 89.5096 205.259 90.1677 204.362 90.9107 204.134 92.0147 204.166 97.1522 204.309 102.285 204.442 107.406 204.813 108.696 204.909 109.98 205.068 111.27 205.195 112.093 205.247 112.796 205.81 113.027 206.602 114.168 209.643 115.351 212.684 116.53 215.725ZM112.57 199.347C108.324 200.726 104.015 201.698 99.5565 201.623 80.747 201.305 61.9269 201.395 43.1174 201.39 41.8647 201.464 40.6193 201.151 39.5509 200.493 38.7565 199.835 37.5952 199.876 36.8494 200.588 36.1326 201.142 35.237 201.412 34.3337 201.347 30.7618 201.347 27.1846 201.289 23.6074 201.321 22.5459 201.321 22.0895 200.854 21.8825 199.888 21.1713 196.565 20.8155 193.176 20.821 189.777 20.7078 188.439 21.575 187.213 22.875 186.874 27.4553 185.282 32.2054 184.449 36.9608 183.642 40.2674 183.079 43.5845 182.633 46.8963 182.119 47.7311 181.95 48.5982 182.06 49.3643 182.432 51.1476 183.329 52.9839 182.697 54.7672 182.432 67.5581 180.723 80.3437 178.934 93.1345 177.241 96.9718 176.776 100.864 177.274 104.461 178.69 105.4 179.011 106.181 179.679 106.642 180.558 107.703 182.623 108.765 184.682 109.826 186.768 110.357 187.829 110.15 188.079 108.903 187.994L107.077 187.872 107.013 188.084C108.107 188.647 109.2 189.215 110.299 189.772 111.022 190.138 111.578 190.767 111.854 191.529 112.57 193.312 113.255 195.106 113.796 196.953 114.141 198.163 113.823 198.938 112.57 199.347ZM119.836 163.707C117.538 167.92 114.289 171.538 110.346 174.274 109.115 175.15 107.656 174.805 106.308 174.927 102.3 175.224 98.2827 175.357 94.1005 175.569 92.8957 175.665 91.5211 175.76 90.311 174.821 89.8742 174.458 89.25 174.43 88.7824 174.752 86.8187 176.233 84.4994 176.111 82.249 176.265 80.1526 176.408 78.0562 176.477 75.9597 176.599 74.7974 176.668 74.2242 176.143 74.4471 175.007 74.9142 172.645 75.2167 170.23 76.0393 167.98 76.862 165.729 78.831 164.387 81.0814 163.665 85.3804 162.28 89.8545 161.584 94.265 160.645 95.0027 160.486 95.5706 160.873 96.1226 161.239 97.0355 161.844 97.8157 161.77 98.4313 160.847 99.0327 160.008 99.9721 159.476 101 159.392 106.154 158.543 111.302 157.641 116.508 157.158 118.297 156.993 118.722 157.237 119.231 158.941 119.528 159.928 119.762 160.926 120.08 161.903 120.262 162.511 120.173 163.169 119.836 163.707ZM161.823 141.979C161.77 143.794 160.687 145.344 159.806 146.899 158.686 148.884 157.482 150.821 156.388 152.816 155.911 153.682 155.152 153.936 154.318 154.122 151.607 154.698 148.848 155.016 146.076 155.072 139.118 155.284 132.16 155.704 125.223 154.509 122.431 154.032 119.619 154.695 116.827 155.014 115.182 155.199 113.536 155.401 111.923 155.746 110.833 156.014 109.68 155.757 108.807 155.051 107.279 153.952 107.035 154.058 106.228 155.688 106.053 156.038 105.941 156.537 105.458 156.51 104.975 156.484 104.875 156.011 104.71 155.651 104.429 155.056 104.179 154.451 103.877 153.798 103.749 153.936 103.654 153.995 103.649 154.058 103.542 156.606 101.844 157.041 99.721 157.407 92.2737 158.637 84.916 160.356 77.6953 162.556 75.6041 163.208 73.5873 163.304 71.7828 161.674 71.1146 161.153 70.6162 160.446 70.3498 159.642 69.6704 157.153 68.9646 154.669 68.2268 152.1 68.2268 153.889 68.2268 155.582 68.2268 157.269 68.2268 157.774 68.4497 158.485 67.8712 158.718 67.4095 158.904 67.022 158.326 66.6452 158.028 63.8694 155.847 61.0512 153.713 58.7425 151.007 57.9793 150.184 57.5648 149.098 57.5855 147.976 57.5334 145.743 57.2813 143.519 56.8318 141.331 56.6513 140.27 56.4921 139.208 57.3042 138.279 57.7075 137.854 57.69 137.182 57.2644 136.779 57.2086 136.726 57.1471 136.679 57.0813 136.639 55.8924 135.822 55.7438 134.601 55.6482 133.338 55.6482 133.115 55.6217 132.892 55.6005 132.669 55.4147 130.817 54.884 128.896 56.3594 127.304 58.2913 125.181 60.3931 123.344 63.413 123.058 69.9889 122.384 76.5913 122.06 83.1884 121.678 84.5737 121.593 85.8421 121.741 86.9779 122.623 87.8218 123.275 88.6391 123.275 89.1699 122.177 89.4352 121.648 89.9915 121.331 90.5816 121.37 104.599 120.579 118.621 120.356 132.654 120.94 133.322 120.972 133.986 121.067 134.654 121.099 135.23 121.093 135.8 121.216 136.321 121.46 136.947 121.832 137.122 122.522 137.08 123.849L137.08 123.997C137.08 124.204 137.106 124.411 137.117 124.623L137.16 124.565 137.223 124.592C137.527 124.583 137.81 124.437 137.993 124.194 138.102 124.058 138.191 123.908 138.258 123.748 138.354 123.508 138.464 123.274 138.587 123.047 139.251 121.986 140.052 121.635 141.363 121.763 146.474 122.251 151.585 122.755 156.664 123.535 156.839 123.535 157.02 123.573 157.195 123.604 160.013 124.093 160.379 124.353 160.91 127.16 161.753 132.052 162.059 137.02 161.823 141.979ZM149.818 89.4352C156.341 89.2973 162.863 89.1168 169.391 89.223 171.709 89.2617 174.03 89.3556 176.355 89.5042 179.051 89.6741 181.131 91.0965 182.963 92.9541 183.516 93.5506 183.849 94.3181 183.907 95.1301 184.57 101.171 184.72 107.258 184.358 113.324 184.22 115.447 183.966 115.696 181.827 116.073 176.977 116.847 172.089 117.352 167.184 117.586 155.55 118.329 143.9 118.907 132.425 119.056 129.284 119.236 126.135 119.236 122.994 119.056 121.82 119.009 120.724 118.455 119.99 117.538 116.981 113.971 115.001 109.81 113.218 105.57 112.262 103.304 114.645 98.8453 116.991 98.1394 126.301 95.4326 135.567 92.5348 144.935 90.0562 146.533 89.6619 148.172 89.4591 149.818 89.4512ZM140.519 73.9641C142.225 76.3143 143.65 78.856 144.765 81.5378 145.365 82.8716 145.201 84.4251 144.335 85.6033 142.961 87.6201 141.23 89.1699 138.81 89.8015 135.7 90.6188 132.569 91.3618 129.474 92.2429 128.42 92.6436 127.23 92.3878 126.433 91.5901 125.117 90.4012 124.761 90.5286 124.135 92.2216 123.875 93.142 123.062 93.7974 122.108 93.8563 120.293 94.0952 118.499 94.5091 116.689 94.748 113.202 95.2097 110.453 93.4742 109.312 90.1677 109.232 89.8652 109.131 89.569 109.009 89.2813 108.381 88.1132 108.069 86.8017 108.101 85.4759 108.101 85.1575 108.123 84.839 108.165 84.5206 108.202 84.1968 108.255 83.8784 108.324 83.5599 108.459 82.9087 108.636 82.2671 108.855 81.6387 108.765 81.5378 108.675 81.4423 108.59 81.3414 108.33 81.7629 107.943 82.0919 107.486 82.2809 107.029 82.525 106.727 82.4029 106.562 81.904 105.846 79.7015 105.453 77.4776 106.111 75.1901 106.375 74.0262 107.363 73.167 108.553 73.0672 112.407 72.5508 116.292 72.2992 120.181 72.3135 120.754 72.3576 121.304 72.5555 121.773 72.8867 122.787 73.4812 123.801 74.0862 124.958 74.7709 124.172 72.2764 124.172 72.2764 126.677 72.287 130.609 72.2116 134.541 72.3889 138.449 72.8177 139.279 72.8729 140.04 73.3002 140.519 73.9801ZM137.197 52.7876C137.993 56.7681 138.911 60.7487 139.219 64.7876 139.373 66.8257 139.091 67.1972 137.053 67.4413 127.803 68.6355 118.552 69.819 109.312 71.0557 108.692 71.1034 108.077 70.914 107.592 70.5249 105.469 69.2724 104.986 69.3361 103.378 71.1247 103.049 71.553 102.568 71.8396 102.035 71.9261 96.9399 72.5524 91.8448 73.1733 86.7497 73.789 86.5326 73.7736 86.3193 73.7237 86.1181 73.6404L85.2424 73.7518C83.682 74.5108 81.9624 74.3887 80.3118 74.601 75.1954 75.2591 70.0579 75.7952 64.9203 76.3949 64.4379 76.4687 63.9464 76.4485 63.4714 76.3366 63.2389 76.2814 63.0128 76.2012 62.7973 76.0977 62.2188 75.8005 61.9747 75.3281 62.4099 74.463 62.3674 74.4259 62.3303 74.3834 62.2878 74.341 61.0937 74.9035 60.1649 74.4312 59.1034 73.8102 56.6567 72.3772 55.4784 70.4506 55.4253 67.5581 55.3298 62.3515 54.8946 57.1502 54.8946 51.9384 54.8946 50.447 55.213 50.2718 56.5187 51.0149 57.0972 51.3439 57.6598 51.6995 58.2276 52.0445L58.424 51.8269 58.424 51.8269C57.8084 50.8344 57.2086 49.826 56.5824 48.8441 56.3701 48.5151 56.1578 48.1913 55.9348 47.8676 55.4041 47.1086 55.558 46.6256 56.2268 46.0577 59.3475 43.404 62.7443 41.711 67.022 41.4191 76.0924 40.7928 85.1362 39.7419 94.196 38.8662L94.5569 38.8291C94.9242 38.7751 95.2989 38.8097 95.6502 38.9299L96.855 38.8291C97.096 38.6177 97.4219 38.5313 97.736 38.5955 97.8427 38.6135 97.9462 38.6456 98.0439 38.6911L99.1054 38.6221 99.1054 38.6221C100.031 38.2199 101.038 38.0381 102.046 38.0913 102.38 38.0913 102.709 38.0913 103.038 38.0489 110.819 37.396 118.594 36.5946 126.391 36.1753 129.204 36.0214 133.46 38.9246 134.256 41.5995 134.75 43.2714 135.148 44.9697 135.679 46.6256 135.997 47.6394 135.727 48.1542 134.692 48.3293 134.267 48.4036 133.667 48.4142 133.63 48.9397 133.561 49.5766 134.235 49.6986 134.66 49.7782 136.3 50.1498 136.884 51.2112 137.197 52.7876ZM136.353 23.1828C137.483 21.8347 138.677 20.5822 140.657 20.6724 141.294 20.6724 141.915 20.752 142.281 21.373 142.62 21.9806 142.509 22.7399 142.011 23.2252 140.887 24.6173 139.198 25.4316 137.409 25.4437 136.761 25.3535 136.008 25.5711 135.721 24.8334 135.435 24.0957 135.96 23.6551 136.353 23.1828ZM73.0035 10.0841C73.9429 10.0576 74.5692 10.238 75.0256 11.188 75.6094 12.3981 76.0871 12.4353 76.9947 11.3791 77.6241 10.5994 78.6214 10.2149 79.6112 10.3707 87.8961 10.9917 96.1863 11.5489 104.471 12.1805 111.286 12.7006 118.097 13.2579 124.905 13.8524 127.213 14.0487 129.517 14.3831 131.804 14.6113 132.926 14.626 133.883 15.426 134.097 16.5273 134.925 20.0673 135.313 23.8515 133.933 27.0944 132.473 30.507 129.814 33.4102 125.515 33.7127 124.756 33.7501 124.001 33.8388 123.254 33.9781 121.954 34.2434 120.813 34.201 119.9 33.028 119.496 32.4973 118.838 32.4495 118.812 33.2987 118.769 34.4292 118.074 34.5778 117.22 34.6733L102.035 36.3717C94.2703 37.2315 86.5056 38.1391 78.7249 38.914 72.8867 39.5031 67.0486 40.4743 61.1149 40.3735 59.9101 40.3735 58.7053 40.1877 57.5058 40.14 56.8705 40.0951 56.2963 39.7475 55.9614 39.2059 55.4306 38.4788 54.8468 38.3355 54.0295 38.9034 52.3205 40.0975 48.7221 39.4341 47.5757 37.6561 44.2108 32.4389 41.1325 27.0678 38.1125 21.6118 37.2315 20.0196 37.9905 18.5653 38.5902 17.1376 38.8556 16.4901 39.5137 16.8192 40.0285 16.9041 40.331 16.9519 40.676 17.1536 40.9202 16.9041 41.1643 16.6547 40.8724 16.3309 40.7291 16.0762 39.5402 13.9001 40.4107 12.1381 42.9051 11.7294 46.9706 11.066 51.0839 10.9067 55.1812 10.6944 59.0185 10.4928 62.861 10.2592 66.7036 10.1212 68.8053 10.1106 70.9071 10.1478 73.0035 10.0841Z" fill="#774A0E" fill-opacity="0.6" transform="matrix(1.00157 0 0 1 0 0.25628)"/></g></svg>