<svg width="193" height="258" xmlns="http://www.w3.org/2000/svg" xmlns:xlink="http://www.w3.org/1999/xlink" overflow="hidden"><defs><clipPath id="clip0"><rect x="0" y="0" width="193" height="258"/></clipPath></defs><g clip-path="url(#clip0)"><path d="M183.985 4.81681C186.858 4.81681 189.187 7.1457 189.187 10.0185L189.187 248.055C189.187 250.928 186.858 253.257 183.985 253.257L8.46323 253.257C5.59039 253.257 3.26149 250.928 3.26149 248.055L3.26149 10.0185C3.26149 7.1457 5.59039 4.8168 8.46323 4.8168Z" fill="#4C2F00" transform="matrix(1 0 0 1.00394 0.0806374 0)"/><path d="M62.7329 12.8795C56.9018 12.6558 51.1435 13.7742 45.3799 14.5493 37.4057 15.6052 29.447 16.8224 21.4832 18.0084 20.5625 18.1489 20.0007 17.7275 19.4025 17.1917 18.3621 16.2554 18.0032 16.2762 17.4414 17.4674 17.0721 18.3216 16.2439 18.8866 15.3139 18.9187 11.5791 19.3817 7.86502 20.1203 4.11977 20.344L3.26149 20.3752 3.26149 22.5599C11.5843 21.8629 19.907 21.2491 28.3182 21.4468 31.793 21.53 34.3835 22.3935 36.0896 25.5717 37.0008 27.1244 38.0451 28.5951 39.2107 29.9672 39.9346 30.7558 40.0806 31.9159 39.5748 32.8594 38.9402 34.2742 39.1379 34.5707 40.6151 34.4199 41.9 34.2742 42.6282 34.7684 43.2732 35.8191 44.4748 37.7802 45.7753 39.7048 47.1017 41.6139 47.7935 42.6178 47.6843 43.4241 46.8624 44.298 45.242 46.1464 43.1462 47.5155 40.8024 48.2565 28.3356 51.9289 15.822 55.4364 3.26149 58.7796L3.26149 60.8603C3.63313 60.9706 3.9771 61.1584 4.27062 61.4117 4.60874 61.6978 4.86362 61.7186 5.00927 61.188 5.19133 60.491 5.78433 60.1477 6.36172 59.8356 9.74805 57.8901 13.4673 56.8914 17.2281 56.0175 24.3025 54.3633 31.3769 52.6988 38.3732 50.7065 39.8861 50.2721 41.3728 49.751 42.8259 49.146 45.1823 48.1733 47.6791 48.475 50.1083 48.7299 55.0344 49.25 55.076 49.3228 55.5129 54.2281 55.8354 57.8693 56.0331 61.4741 56.2099 65.0997 56.3244 67.4821 53.5571 70.5147 51.1851 70.6864 50.1083 70.7592 49.9315 71.3782 50.4516 72.0648 51.2579 73.1052 50.8782 73.9635 50.3268 74.9258 49.042 77.1677 47.7883 79.4253 46.077 81.3915 45.6397 82.0173 44.863 82.3107 44.1211 82.1302 43.1588 81.9013 42.2017 82.1822 41.2498 82.2914 40.2978 82.4007 39.2783 82.6972 38.2848 82.2914 38.0784 82.2051 37.8462 82.2051 37.6398 82.2914 34.4823 84.0496 30.9659 83.4983 27.616 83.7271 19.5013 84.2785 11.397 85.0119 3.27189 85.3605L3.27189 90.5102C4.34518 89.4111 5.496 88.391 6.71544 87.4568 7.30095 86.9907 8.02212 86.728 8.77013 86.7077 16.167 86.4528 23.5587 86.1095 30.9555 85.9275 41.3234 85.7522 51.6651 84.8309 61.9006 83.1705 64.3559 82.7492 66.8475 82.5047 69.3131 82.1302 69.9727 82.0319 70.637 82.2795 71.0713 82.7856 71.6695 83.363 72.2469 83.9664 72.8659 84.5178 73.6097 85.1784 74.4264 85.0744 74.5409 84.0965 74.905 81.3447 76.7932 81.069 79.0144 80.8454 84.4137 80.294 89.7871 79.4357 95.223 79.3369 98.7029 79.2744 101.632 80.8974 104.435 82.7284 104.983 83.1763 105.373 83.789 105.543 84.4762 106.412 86.869 107.026 89.3346 107.697 91.7846 107.983 92.825 107.541 93.652 107.088 94.5207 106.365 95.9148 106.469 96.2113 108.004 96.6014 108.659 96.7419 109.143 97.2964 109.195 97.9643 109.897 101.169 110.599 104.378 111.354 107.572 111.614 108.439 111.235 109.37 110.443 109.809 108.361 111.185 106.201 112.439 103.972 113.564 101.777 114.755 99.5976 115.978 97.3765 117.117 95.0357 118.319 92.4192 118.496 89.886 118.953 87.9093 119.312 85.9015 119.551 83.904 119.749 82.6061 119.943 81.2797 119.762 80.0807 119.229 78.7803 118.62 77.2302 118.974 75.7997 119.146 68.923 119.973 62.1711 121.528 55.3829 122.839 52.4595 123.406 49.661 122.969 46.774 122.673 42.9455 122.272 39.117 121.851 35.2886 121.445 33.6968 121.273 33.624 121.117 34.5031 119.744 34.6644 119.489 34.836 119.224 35.1221 118.802 34.906 118.81 34.6915 118.841 34.4823 118.896 30.2533 121.273 25.7798 120.602 21.2907 120.025 16.9941 119.473 12.6922 118.984 8.38 118.542 6.77297 118.362 5.28012 117.624 4.16139 116.456 3.38113 115.713 3.97413 115.12 4.22901 114.454 4.4839 113.788 5.37339 113.19 4.96766 112.649 4.62434 112.191 3.87529 112.503 3.26149 112.716L3.26149 120.42C6.65302 121.133 10.0498 121.814 13.4413 122.527 13.833 122.572 14.2136 122.686 14.5649 122.865 17.6391 124.904 21.2491 124.764 24.6614 125.351 31.5589 126.537 38.524 126.511 45.4684 126.392 47.3956 126.329 49.324 126.47 51.2215 126.813 52.2982 127.032 52.8652 127.547 52.8548 128.779 52.8496 130.836 52.9485 132.891 53.1513 134.938 53.2954 136.032 52.9573 137.135 52.2254 137.96 51.8894 138.364 51.5867 138.793 51.3203 139.245 50.7065 140.286 50.847 140.603 52.0173 140.582 53.0265 140.582 53.4322 140.91 53.479 141.914 53.5779 144.369 53.5727 146.814 53.479 149.269 53.4322 150.715 52.6936 151.469 51.3983 151.932 48.274 152.948 45.0758 153.72 41.8324 154.242 41.0157 154.398 40.173 154.455 39.3771 154.674 36.0623 155.623 32.515 155.331 29.4002 153.852 28.0894 153.243 28.0061 153.332 28.1726 154.814 28.3026 155.938 27.8345 156.411 26.7629 156.541 20.8069 157.238 14.8666 158.102 8.83775 157.909 7.65695 157.909 6.47096 157.857 5.29016 157.909 4.59002 157.983 3.88216 157.914 3.20947 157.706L3.20947 161.701C7.64655 162.138 12.0888 162.591 16.5103 163.189 17.9252 163.381 18.5234 164.006 18.9603 165.389 19.7406 167.87 19.1788 169.608 16.9577 170.898 16.4358 171.283 15.9469 171.711 15.496 172.177L15.496 172.177C16.3491 172.266 17.1397 171.949 17.9512 171.813 19.855 171.491 20.0319 171.626 20.2087 173.582 20.4688 176.76 20.7653 179.944 20.963 183.127 21.2647 188.152 21.4416 193.182 21.2803 198.212 21.1867 201.172 21.0878 201.245 18.2061 200.771 13.2228 199.965 8.24995 199.138 3.26149 198.379L3.26149 201.021C4.57232 201.083 5.86236 201.151 7.1992 201.208 8.87936 201.281 10.3463 201.65 11.5999 202.862 12.4842 203.721 13.7534 203.487 14.8562 203.648 22.794 204.824 30.7943 205.068 38.7841 205.349 41.4986 205.392 44.2031 205.688 46.8624 206.233 47.7184 206.322 48.4197 206.952 48.5998 207.794 49.5624 211.474 50.2733 215.216 50.7273 218.993 50.8783 221.823 49.3441 224.475 46.8156 225.755 45.2863 226.458 43.6113 226.088 42.0196 225.963 30.1701 225.027 18.3673 223.534 6.55419 222.114 5.75655 222.067 5.00934 221.708 4.47349 221.115 4.17082 220.712 3.73962 220.424 3.25108 220.299L3.25108 226.021C3.82324 226.28 4.37912 226.573 4.91564 226.9 6.19527 227.685 6.9027 228.611 6.78826 230.192 6.68423 231.765 6.68423 233.343 6.78826 234.916 6.86109 236.237 6.21607 236.929 5.1029 237.407 4.4891 237.672 3.87529 237.927 3.25629 238.104L3.25629 241.361C6.37733 241.012 9.49837 240.866 12.5778 240.513 14.0518 240.207 15.5367 240.984 16.1254 242.37 16.2866 242.671 16.5051 242.942 16.7236 243.275 16.8692 243.134 17.0097 243.067 17.0305 242.973 17.5507 240.533 17.5507 240.409 19.9435 240.372 23.1841 240.32 26.4248 240.029 29.6655 240.013 30.7475 240.013 31.8294 240.013 32.9114 240.107L36.8023 240.044C37.475 239.925 38.1635 239.925 38.8362 240.044 38.9662 240.044 39.0806 240.086 39.0286 240.263 39.0563 240.125 39.1656 240.017 39.3043 239.992L39.4396 239.966C41.0365 239.602 42.5606 239.587 43.8142 240.877 44.5737 241.657 45.3331 241.673 45.9885 240.721 46.5399 239.92 47.3046 239.727 48.2513 239.717 53.1149 239.639 57.9733 239.54 62.5613 241.553 63.302 241.928 64.0667 242.255 64.85 242.531 68.2364 243.535 69.2871 245.969 69.4536 249.293 69.5212 250.63 69.5784 251.967 69.6408 253.298L73.615 253.298C73.7788 253.067 73.9614 252.85 74.1611 252.648 75.2587 251.551 75.1443 251.202 73.7294 250.661 73.1177 250.494 72.7301 249.893 72.8295 249.267 72.8555 248.352 72.8295 247.431 72.8295 246.51 72.8295 244.528 73.3497 243.795 75.2639 243.134 77.1828 242.511 79.1865 242.184 81.2043 242.167 86.8534 242 92.4973 242.104 98.1411 242.401 98.924 242.488 99.6647 242.801 100.274 243.301 100.888 243.722 101.496 244.154 102.094 244.591 102.911 245.199 103.431 244.976 103.483 243.993 103.551 242.827 104.149 242.718 105.148 242.786 111.343 243.202 117.549 243.587 123.723 244.242 125.856 244.471 128.046 244.565 130.08 245.158 133.563 246.199 136.757 248.036 139.406 250.526 140.121 251.253 140.519 252.233 140.514 253.252L143.984 253.252C144.182 251.8 144.364 250.344 144.504 248.882 144.608 247.8 145.118 247.368 146.127 247.212 148.151 246.911 150.164 246.541 152.484 246.146 151.246 245.381 150.216 244.788 149.227 244.117 147.995 243.29 147.958 242.921 148.967 241.881 150.293 240.54 151.765 239.353 153.358 238.344 155.339 237.048 157.587 236.97 159.808 236.918 169.608 236.695 179.408 236.773 189.208 236.845L189.208 232.252C189.024 231.944 188.909 231.6 188.87 231.243 188.625 229.417 187.71 227.638 188.75 225.745 188.901 225.474 189.052 225.225 189.208 224.949L189.208 220.122C188.834 220.429 188.426 220.691 187.991 220.902 187.517 221.188 187.292 221.753 187.439 222.286 187.529 223.167 187.246 224.046 186.659 224.71 185.894 225.724 185.151 226.754 184.417 227.789 183.162 229.681 181.178 230.967 178.94 231.342 175.751 231.919 172.599 232.674 169.441 233.386 168.365 233.592 167.257 233.556 166.195 233.282 165.337 233.1 164.474 232.944 163.595 232.798 162.955 232.694 162.471 232.871 162.721 233.631 163.017 234.51 162.549 234.671 161.852 234.812 157.899 235.566 153.935 236.325 149.935 236.788 146.725 237.163 143.573 236.403 140.41 235.982 139.62 235.878 139.443 235.399 139.511 234.676 139.563 234.156 139.89 233.683 139.693 233.064 139.511 233.126 139.396 233.131 139.36 233.183 137.986 235.394 136.145 235.009 133.991 234.473 130.621 233.641 128.519 231.794 127.318 228.523 125.929 224.741 124.488 220.98 123.156 217.172 122.674 216.036 122.787 214.734 123.458 213.698 123.869 213.042 124.181 212.314 124.498 211.669 124.259 211.336 124.056 211.456 123.864 211.539 121.731 212.434 121.7 212.439 121.2 210.134 120.894 208.725 120.639 207.3 120.451 205.869 120.233 204.231 120.592 203.742 122.194 203.377 127.016 202.269 131.906 201.51 136.759 200.647 137.37 200.545 137.996 200.707 138.481 201.094 139.417 201.781 140.234 201.77 140.988 200.818 141.651 200.059 142.584 199.589 143.589 199.507 153.664 197.916 163.735 196.319 173.842 194.919 177.291 194.441 180.646 195.122 184.011 195.658 185.723 195.917 187.415 196.288 189.078 196.771L189.078 191.346 189.047 191.346C187.383 190.206 185.852 188.885 184.48 187.408 183.756 186.643 183.564 185.884 184.131 184.937 185.171 183.21 186.134 181.442 187.153 179.704 187.6 178.945 188.273 178.345 189.078 177.988L189.078 167.106C187.871 169.327 186.534 171.475 185.249 173.65 183.647 176.365 182.128 179.127 180.459 181.801 178.182 185.47 175.04 188.526 171.309 190.701 169.197 191.944 166.586 191.934 164.177 192.345 155.069 193.905 145.903 195.044 136.748 196.277 136.001 196.394 135.244 196.136 134.725 195.585 133.487 194.347 133.164 194.436 132.717 196.105 132.626 196.696 132.123 197.135 131.526 197.146 127.474 197.515 123.437 198.061 119.349 198.03 118.277 198.03 117.741 197.635 117.559 196.584 117.247 194.774 116.878 192.974 116.519 191.169 116.42 190.558 116.559 189.932 116.909 189.421 117.653 188.131 118.397 186.846 119.125 185.546 119.265 185.291 119.479 184.974 119.125 184.719 118.896 184.542 118.605 184.688 118.386 184.797 118.168 184.906 117.996 184.995 117.798 185.093 115.718 186.134 115.681 186.134 115.426 183.871 115.203 181.915 115.047 179.949 114.854 177.988 114.763 177.02 115.03 176.052 115.603 175.267 118.668 170.941 122.124 166.907 125.929 163.215 126.792 162.362 127.895 162.112 129.05 161.972L148.249 159.548C148.906 159.529 149.556 159.399 150.169 159.163 154.081 157.15 158.408 157.295 162.585 156.687 163.927 156.489 165.285 156.437 166.695 156.312 170.211 156.442 173.639 157.43 177.124 158.05 178.014 158.206 177.795 158.731 177.556 159.324 177.317 159.917 176.557 160.609 177.072 161.077 177.587 161.545 178.394 160.864 178.908 160.494 180.76 159.168 182.659 159.064 184.745 159.834 186.207 160.354 187.725 160.76 189.203 161.254L189.203 156.245C188.22 156.166 187.242 156.083 186.259 155.99 184.448 155.813 182.914 155.469 181.905 153.841 181.678 153.451 181.245 153.23 180.797 153.274 176.027 153.581 171.397 152.645 166.752 151.714 165.509 151.459 164.989 150.757 164.843 149.576 164.453 146.271 164.25 142.947 164.234 139.62 164.25 138.912 164.564 138.243 165.098 137.778 165.93 136.93 166.097 136.031 165.27 135.11 164.354 134.07 164.172 132.899 164.229 131.578 164.267 129.346 164.441 127.119 164.749 124.909 164.769 124.028 165.5 123.329 166.382 123.349 166.382 123.349 166.382 123.349 166.383 123.349 167.121 123.302 167.865 123.255 168.609 123.182 171.293 122.917 171.288 122.917 171.912 125.523 172.021 125.976 172.151 126.423 172.365 127.234 172.885 125.908 173.311 124.914 173.66 123.9 173.808 123.287 174.392 122.883 175.018 122.959 179.751 122.903 184.483 122.837 189.213 122.761L189.213 114.069C188.524 113.574 188.06 112.826 187.923 111.988 187.523 110.188 187.361 108.347 187.138 106.537 186.867 105.421 187.551 104.296 188.667 104.024 188.854 103.951 189.031 103.868 189.213 103.78L189.213 103.026C189.047 103.026 188.88 103.026 188.719 103.026 187.902 102.989 187.46 102.729 187.372 101.803 187.127 99.2387 186.794 96.6794 186.477 94.1202 186.389 93.547 186.625 92.9722 187.091 92.6273 187.732 92.1035 188.447 91.6775 189.213 91.3633L189.213 89.0953C187.72 89.0589 186.279 88.8248 185.021 87.6804 184.573 87.2695 184.318 87.4724 184.048 87.9769 182.872 90.1513 180.287 90.2917 178.784 88.2838 178.263 87.5868 177.785 86.8534 177.135 85.9171 176.781 86.9574 176.495 87.7845 176.224 88.622 176.045 89.4163 175.327 89.9708 174.513 89.9432 170.622 90.1305 166.736 90.4062 162.851 90.6142 160.619 90.7339 158.382 90.7495 156.156 90.8899 154.961 90.9695 153.792 90.5206 152.957 89.6623 150.465 87.3267 148.201 84.7591 146.195 81.9949 145.667 81.2412 145.278 80.3991 145.045 79.5085 143.412 73.5577 141.81 67.5913 140.426 61.5781 139.857 59.1411 141.372 56.7052 143.808 56.1361 144.304 56.0206 144.815 55.9894 145.321 56.0435 150.554 56.5012 155.761 57.2243 160.968 57.9213 162.096 58.0925 163.167 58.533 164.089 59.2061 165.738 60.3609 167.496 60.8187 169.426 60.1529 173.202 58.842 176.953 59.5339 180.713 60.1529 183.548 60.6314 186.383 61.1256 189.218 61.6041L189.218 59.82C187.283 59.7263 185.416 59.1177 183.528 58.6964 179.855 57.8641 176.245 56.8602 172.604 55.9187 171.34 55.5961 170.352 54.7587 169.332 54.0148 167.829 52.9173 166.128 52.3034 164.385 52.9433 159.402 54.7691 154.46 53.8536 149.493 53.0005 146.299 52.4803 143.105 51.9601 139.895 51.4868 138.808 51.3359 138.267 50.873 138.132 49.7858 137.888 47.7883 137.586 45.8013 137.305 43.8038 137.257 43.0103 137.483 42.2246 137.945 41.5775 138.215 41.0989 138.512 40.636 138.85 40.0846 136.837 40.1782 136.842 40.1782 136.769 38.1807 136.707 36.8231 136.676 35.4654 136.509 34.1182 136.343 32.7709 136.936 32.1571 138.07 31.7826 141.01 30.7592 144.08 30.1567 147.188 29.9932 157.144 29.6499 167.168 29.4158 177.187 29.1297 181.185 29.0049 185.185 28.9043 189.187 28.828L189.187 25.759 179.486 26.1075C175.241 26.2584 170.997 26.3988 166.757 26.6277 165.696 26.7614 164.67 26.1907 164.224 25.218 162.908 22.9396 162.44 22.9501 161.171 25.2544 160.572 26.352 159.855 26.9502 158.512 26.9658 155.23 27.0074 151.953 27.1947 148.671 27.3299 147.966 27.3785 147.265 27.1959 146.673 26.8097 143.048 24.2765 140.863 20.9526 140.925 16.4583 140.925 15.2619 141.446 14.0759 141.68 12.8743 142.15 10.2061 142.478 7.51469 142.663 4.8116L140.124 4.8116C140.008 7.31811 139.399 9.77703 138.33 12.0472L137.378 13.9198C136.504 15.6416 135.219 16.3647 133.18 16.3959 128.67 16.4583 124.165 16.6299 119.656 16.2918 118.383 16.2625 117.127 15.998 115.952 15.5116 115.307 15.2099 114.641 14.8458 114.391 14.1695 114.017 13.1292 113.632 13.1292 112.893 13.8574 111.239 15.4179 109.346 15.8965 107 15.6 98.5729 14.525 90.1773 13.2575 81.8129 11.7975 80.6935 11.5834 79.6417 11.1055 78.7439 10.4035 78.078 9.9093 77.4486 9.36312 76.7776 8.87416 75.2649 7.86497 74.0566 6.46212 73.282 4.81681L70.7852 4.81681C70.7243 5.4303 70.6198 6.03864 70.4731 6.63741 69.6096 10.1642 67.5653 13.0616 62.7329 12.8795ZM47.9756 235.514C47.8872 236.554 47.2161 236.939 46.3058 237.017 44.8702 237.147 43.4293 237.256 41.9832 237.324 35.3406 237.626 28.698 237.907 22.0554 238.203 20.5677 238.271 19.0852 238.375 16.9889 238.494 14.2215 238.963 11.7559 237.079 9.26949 235.274 8.52065 234.709 8.10155 233.809 8.15112 232.871 8.17614 231.164 8.36954 229.464 8.72851 227.794 8.88456 226.936 10.055 226.442 11.1941 226.754 12.1223 227.011 13.0357 227.318 13.9302 227.675 14.7625 228.002 15.007 227.753 14.7417 226.941 14.4192 225.953 14.8406 225.734 15.7821 225.797 24.5574 226.395 33.3379 226.863 42.0664 227.971 44.9794 228.309 48.2305 232.518 47.9756 235.488ZM128.134 239.592C129.009 238.827 130.141 238.422 131.302 238.458 133.731 238.822 136.327 239.217 138.923 239.581 139.786 239.706 140.665 239.717 141.524 239.826 142.798 239.982 143.193 240.492 143.001 241.777 142.787 243.04 142.161 244.198 141.222 245.069 140.499 245.798 139.609 245.59 138.751 245.324 136.722 244.742 134.886 243.696 132.972 242.848 131.647 242.164 130.206 241.733 128.722 241.579 128.228 241.553 127.734 241.413 127.588 240.861 127.497 240.359 127.711 239.851 128.134 239.566ZM58.66 80.2992C58.5559 80.6477 58.1762 80.6061 57.8849 80.6321 56.2776 80.7517 54.665 80.861 53.0577 80.9754 52.7924 80.9754 52.5375 80.9754 52.267 80.9754 51.6896 80.9182 50.9302 81.2823 50.5869 80.6321 50.2436 79.9819 50.7793 79.3785 51.1487 78.8583 51.5162 78.3699 51.929 77.9168 52.3815 77.5059 53.1623 76.6163 54.5163 76.5279 55.4058 77.3087 55.4172 77.3186 55.4286 77.329 55.4401 77.3394 56.4347 78.05 57.3783 78.8287 58.2646 79.6698 58.4415 79.8466 58.7484 80.0183 58.66 80.2992ZM106.443 117.039C107.184 115.486 108.46 114.252 110.037 113.564 110.883 113.094 111.95 113.387 112.435 114.225 113.384 115.693 114.087 117.306 114.516 119 114.807 119.957 114.053 119.801 113.164 119.806 111.463 119.567 109.429 119.286 107.411 118.979 106.147 118.792 105.871 118.225 106.443 117.039ZM22.2322 167.272C21.8005 165.29 22.0241 163.178 22.3258 161.129 22.4507 160.297 22.9761 160.089 23.6991 160.021 26.8774 159.704 30.0504 159.34 33.2287 159.048 35.6995 158.825 38.0351 158.325 40.1366 156.858 42.1341 155.459 44.5893 155.714 46.8624 155.407 49.6492 155.111 52.4501 154.97 55.2528 154.986 57.3335 154.944 58.9773 155.886 60.5898 156.916 60.878 157.096 61.1115 157.351 61.266 157.654 61.5204 158.181 61.6504 158.76 61.6458 159.345 61.8954 159.865 62.0151 160.474 62.244 161.02 62.2908 161.129 62.3376 161.233 62.3948 161.337 62.5061 161.552 62.6481 161.751 62.8162 161.925 62.8697 161.322 62.9831 160.726 63.1543 160.146 63.586 158.866 64.3871 159.027 66.2129 160.333 66.3996 160.493 66.5734 160.667 66.7331 160.853L67.5185 161.373C67.7901 161.362 68.0397 161.522 68.1427 161.774L68.1791 161.8C70.0315 162.787 71.7928 163.936 73.4433 165.233 74.0051 165.654 74.5565 166.081 75.1131 166.508 75.5703 166.868 75.7986 167.446 75.7113 168.021 75.5505 171.175 74.8358 174.276 73.5993 177.181 73.216 178.185 72.2698 178.863 71.1961 178.903 65.7551 179.423 60.3141 180.016 54.8731 180.568 52.9173 180.765 50.951 180.885 48.9951 181.119 47.6801 181.318 46.3421 180.956 45.3071 180.12 44.9968 179.878 44.6662 179.662 44.3188 179.475 43.7154 179.153 43.1224 178.487 42.4149 178.836 41.6139 179.226 42.0196 180.089 42.056 180.739 42.1028 181.676 41.7959 182.076 40.8128 182.144 35.9232 182.456 31.0336 182.758 26.1231 182.727 24.8955 182.727 24.2713 182.243 23.9436 181.13 23.1841 178.529 22.5131 175.881 22.7056 173.259 22.8457 171.251 22.6862 169.233 22.2322 167.272ZM50.3996 208.069C50.0043 207.419 50.5609 206.925 50.9198 206.462 52.0173 205.068 53.1877 203.783 55.2112 203.924 55.8874 203.97 56.5377 204.022 56.855 204.735 57.1723 205.448 56.855 206.02 56.4076 206.535 55.3054 207.78 53.7547 208.538 52.0954 208.642 51.4556 208.59 50.7585 208.673 50.3996 208.069ZM117.471 216.226C117.72 216.871 117.929 217.438 116.852 217.386 116.066 217.349 116.238 217.781 116.508 218.218 116.593 218.372 116.7 218.512 116.826 218.634 119.224 220.798 120.389 223.649 121.388 226.624 122.178 228.986 123.094 231.306 124.02 233.626 124.351 234.301 124.233 235.111 123.723 235.665 122.614 237.131 121.371 238.491 120.009 239.727 117.996 241.454 116.222 241.184 114.865 238.926 114.779 238.772 114.685 238.623 114.584 238.479 114.329 238.141 114.121 237.553 113.647 237.704 113.06 237.896 113.445 238.474 113.517 238.848 113.757 240.013 113.257 240.299 112.175 240.242 105.58 239.883 98.9838 239.493 92.3776 239.249 84.8559 238.968 77.3394 238.578 69.8021 238.593 66.0371 238.641 62.2736 238.399 58.5455 237.87 57.9837 237.787 57.4272 237.672 56.8706 237.553 55.6326 237.288 54.9043 236.674 54.8263 235.254 54.6806 232.653 54.3945 230.021 54.1032 227.415 53.9586 226.402 54.3342 225.385 55.102 224.71L58.5975 221.391 58.3114 221.095C57.2191 221.396 56.1319 221.714 55.0396 222 54.1397 222.234 53.6039 222 53.6091 220.933 53.6091 218.436 53.6091 215.94 53.6091 213.448 53.6174 212.701 53.8551 211.974 54.2905 211.367 55.8869 208.955 57.8428 206.801 60.0904 204.98 60.7781 204.429 61.6458 204.155 62.5249 204.21 70.4419 204.402 78.3641 204.584 86.2864 204.73 87.41 204.73 88.0498 205.281 88.6948 206.041 89.7091 207.232 90.094 207.242 91.0148 205.989 91.6598 205.104 92.388 204.886 93.4752 204.917 98.5052 205.058 103.535 205.188 108.56 205.552 109.824 205.64 111.083 205.796 112.347 205.926 113.154 205.976 113.844 206.528 114.069 207.305 115.156 210.291 116.321 213.271 117.471 216.247ZM113.59 200.173C109.429 201.52 105.205 202.478 100.836 202.405 82.4007 202.093 63.9605 202.181 45.5204 202.176 44.2939 202.25 43.0741 201.946 42.0248 201.307 41.2463 200.662 40.1081 200.702 39.3771 201.401 38.6803 201.94 37.8117 202.208 36.9323 202.155 33.4315 202.155 29.9256 202.093 26.4196 202.124 25.3793 202.124 24.9319 201.671 24.729 200.725 24.0321 197.468 23.6833 194.146 23.6887 190.815 23.5777 189.503 24.4277 188.302 25.7018 187.97 30.1909 186.409 34.8516 185.593 39.5124 184.797 42.7479 184.245 46.0041 183.814 49.2448 183.309 50.0646 183.142 50.9167 183.249 51.6688 183.616 53.4114 184.49 55.2112 183.876 56.959 183.642 69.4952 181.967 82.0262 180.209 94.5623 178.555 98.3201 178.098 102.132 178.588 105.652 179.98 106.573 180.294 107.339 180.949 107.79 181.811 108.831 183.835 109.871 185.853 110.911 187.897 111.432 188.937 111.229 189.177 110.006 189.099L108.217 188.979 108.154 189.187C109.226 189.738 110.298 190.295 111.374 190.841 112.083 191.2 112.628 191.816 112.898 192.563 113.601 194.311 114.272 196.069 114.802 197.874 115.13 199.029 114.818 199.793 113.59 200.194ZM120.711 165.238C118.462 169.37 115.277 172.919 111.411 175.6 110.204 176.458 108.773 176.12 107.452 176.24 103.525 176.526 99.5872 176.661 95.4883 176.864 94.3075 176.963 92.9602 177.051 91.7742 176.136 91.3466 175.779 90.7339 175.752 90.2761 176.068 88.3515 177.514 86.0783 177.395 83.8728 177.551 81.7921 177.691 79.7634 177.759 77.7087 177.879 76.5747 177.946 76.0078 177.431 76.2262 176.318 76.6892 174.003 76.9805 171.61 77.7867 169.426 78.593 167.241 80.5229 165.904 82.7284 165.197 86.947 163.844 91.3269 163.163 95.6495 162.237 96.3725 162.086 96.9291 162.466 97.4701 162.825 98.3648 163.413 99.1295 163.319 99.7329 162.44 100.322 161.618 101.243 161.097 102.251 161.015 107.307 160.177 112.347 159.298 117.45 158.825 119.203 158.658 119.619 158.903 120.118 160.572 120.41 161.54 120.639 162.518 120.951 163.475 121.135 164.076 121.048 164.728 120.711 165.259ZM161.862 143.948C161.816 145.727 160.749 147.246 159.886 148.77 158.788 150.71 157.607 152.614 156.536 154.57 156.096 155.288 155.346 155.76 154.507 155.844 151.85 156.41 149.145 156.724 146.429 156.78 139.615 156.983 132.79 157.394 125.991 156.229 123.255 155.761 120.498 156.406 117.762 156.723 116.149 156.881 114.545 157.12 112.956 157.441 111.887 157.697 110.76 157.446 109.902 156.759 108.404 155.683 108.17 155.782 107.374 157.384 107.203 157.727 107.099 158.216 106.62 158.19 106.141 158.164 106.048 157.696 105.887 157.347 105.611 156.765 105.366 156.172 105.075 155.527 104.95 155.667 104.851 155.724 104.846 155.787 104.747 158.278 103.083 158.71 100.997 159.069 93.6973 160.271 86.4856 161.957 79.4097 164.115 77.3602 164.755 75.3835 164.848 73.615 163.246 72.9595 162.738 72.47 162.047 72.2105 161.259 71.5447 158.819 70.8528 156.385 70.1298 153.867 70.1298 155.62 70.1298 157.274 70.1298 158.934 70.1298 159.428 70.3483 160.125 69.7813 160.354 69.3287 160.531 68.949 159.964 68.5797 159.678 65.8592 157.54 63.1022 155.449 60.8395 152.796 60.0878 151.992 59.679 150.926 59.7003 149.826 59.6493 147.637 59.4023 145.458 58.9617 143.313 58.79 142.273 58.6288 141.232 59.4246 140.322 59.822 139.907 59.8075 139.248 59.3924 138.851 59.3357 138.797 59.2732 138.75 59.2061 138.709 58.041 137.908 57.8953 136.717 57.8017 135.479 57.8017 135.261 57.8017 135.042 57.7549 134.824 57.578 133.008 57.0578 131.125 58.4987 129.56 60.3921 127.51 62.452 125.684 65.4118 125.398 71.8568 124.738 78.3277 124.42 84.7987 124.041 86.1511 123.963 87.3996 124.103 88.5075 124.972 89.3346 125.611 90.1357 125.606 90.6558 124.535 90.9211 124.007 91.4824 123.695 92.0707 123.749 105.803 122.974 119.546 122.756 133.3 123.328 133.955 123.328 134.605 123.453 135.261 123.484 135.825 123.473 136.385 123.594 136.894 123.838 137.508 124.202 137.68 124.878 137.638 126.178L137.638 126.319C137.638 126.527 137.664 126.73 137.674 126.933L137.716 126.881 137.778 126.907C138.055 126.891 138.312 126.759 138.486 126.543 138.591 126.409 138.679 126.262 138.746 126.106 138.841 125.871 138.949 125.642 139.068 125.419 139.719 124.353 140.504 124.035 141.789 124.16 146.798 124.634 151.807 125.128 156.785 125.892 156.957 125.924 157.134 125.934 157.306 125.96 160.068 126.439 160.427 126.699 160.947 129.45 161.779 134.242 162.086 139.11 161.862 143.968ZM150.096 92.4504C156.494 92.3152 162.887 92.1383 169.28 92.2424 171.555 92.2772 173.83 92.3672 176.105 92.5129 178.747 92.6793 180.786 94.0734 182.581 95.8992 183.124 96.4813 183.451 97.2324 183.507 98.0267 184.156 103.949 184.304 109.916 183.949 115.863 183.814 117.944 183.564 118.189 181.473 118.558 176.715 119.312 171.918 119.8 167.106 120.02 155.704 120.753 144.286 121.315 133.04 121.466 129.961 121.643 126.874 121.643 123.796 121.466 122.646 121.418 121.573 120.875 120.852 119.978 117.903 116.482 115.962 112.399 114.215 108.243 113.278 106.027 115.614 101.652 117.913 100.986 127.037 98.3336 136.119 95.4935 145.3 93.0642 146.869 92.6772 148.48 92.4832 150.096 92.4868ZM140.967 77.3238C142.639 79.6271 144.036 82.1182 145.128 84.7467 145.718 86.0507 145.56 87.5723 144.712 88.726 143.36 90.7079 141.664 92.2216 139.292 92.8458 136.244 93.6468 133.175 94.3751 130.142 95.2334 129.11 95.6271 127.943 95.379 127.162 94.5988 125.872 93.4336 125.523 93.5584 124.909 95.2126 124.655 96.1156 123.859 96.7601 122.922 96.8199 121.143 97.0488 119.39 97.4597 117.611 97.6938 114.194 98.1463 111.499 96.4454 110.381 93.2047 110.305 92.9077 110.206 92.6174 110.084 92.336 109.469 91.1911 109.163 89.9057 109.195 88.6064 109.195 88.2943 109.221 87.9769 109.257 87.6648 109.294 87.3527 109.346 87.0406 109.413 86.7285 109.545 86.0903 109.719 85.4609 109.933 84.8455 109.845 84.7467 109.762 84.6478 109.673 84.5542 109.417 84.9646 109.039 85.2845 108.591 85.4697 108.144 85.7142 107.848 85.5893 107.686 85.1056 106.984 82.9469 106.599 80.7673 107.244 78.5254 107.494 77.3737 108.463 76.5186 109.637 76.4135 113.415 75.9094 117.223 75.6644 121.034 75.68 121.605 75.7149 122.155 75.9094 122.62 76.2418 123.614 76.8244 124.608 77.4174 125.742 78.0884 124.972 75.6436 124.972 75.6436 127.427 75.654 131.28 75.5802 135.134 75.7539 138.964 76.1742 139.771 76.2351 140.507 76.658 140.967 77.3238ZM137.711 56.5481C138.491 60.4546 139.391 64.3507 139.693 68.3144 139.843 70.3119 139.568 70.676 137.57 70.9153 128.509 72.0856 119.442 73.2456 110.381 74.4576 109.774 74.5013 109.172 74.3156 108.695 73.9375 106.615 72.7047 106.141 72.7671 104.565 74.5253 104.243 74.945 103.772 75.2259 103.249 75.3107 98.2556 75.9209 93.2619 76.5279 88.2682 77.1313 88.0555 77.1209 87.8459 77.0736 87.6492 76.9909L86.7909 77.1001C85.2616 77.844 83.5763 77.7243 81.9585 77.9324 76.9441 78.5774 71.914 79.1028 66.8735 79.6906 66.3991 79.7603 65.9159 79.7405 65.4482 79.6334 65.2204 79.5793 64.9988 79.5007 64.7876 79.3993 64.2206 79.108 63.9865 78.645 64.4079 77.7971L64.2882 77.6775C63.1179 78.2289 62.2075 77.7659 61.1672 77.1573 58.7692 75.7581 57.6144 73.8646 57.5624 71.0349 57.4688 65.932 57.0422 60.8343 57.0422 55.7262 57.0422 54.2645 57.3595 54.0928 58.634 54.8211 59.2009 55.1436 59.7523 55.4921 60.3089 55.825 60.3713 55.7574 60.439 55.6898 60.5014 55.6169L60.5014 55.6169C59.898 54.6442 59.3102 53.6559 58.6964 52.6936 58.4883 52.3711 58.2802 52.0486 58.067 51.7365 57.5468 50.9926 57.6924 50.5192 58.3479 49.9627 61.4065 47.3618 64.7356 45.7024 68.9282 45.4111 77.818 44.7973 86.6817 43.7726 95.5611 42.9143L95.9148 42.8779C96.2742 42.8259 96.641 42.8579 96.9863 42.9715L98.1723 42.8779C98.4069 42.6712 98.7237 42.5847 99.0306 42.6438 99.1347 42.6649 99.2361 42.6981 99.3323 42.7427L100.373 42.675 100.373 42.675C101.28 42.2812 102.267 42.1032 103.254 42.1549 103.582 42.1549 103.91 42.1549 104.227 42.1132 111.853 41.4682 119.473 40.688 127.115 40.277 129.872 40.1262 134.044 42.9663 134.824 45.5932 135.308 47.2266 135.703 48.8911 136.218 50.5192 136.53 51.5076 136.265 52.0121 135.25 52.189 134.834 52.2618 134.246 52.2722 134.21 52.782 134.142 53.4062 134.803 53.5311 135.219 53.6091 136.847 53.968 137.419 55.0031 137.726 56.5481ZM136.884 27.538C137.997 26.2167 139.162 24.9839 141.102 25.0776 141.732 25.0776 142.335 25.1556 142.694 25.7642 143.026 26.3597 142.917 27.104 142.429 27.5796 141.329 28.9451 139.672 29.7435 137.919 29.7539 137.284 29.6603 136.546 29.8736 136.265 29.1557 135.984 28.4379 136.514 28.0009 136.899 27.538ZM74.8114 14.7053C75.7321 14.7053 76.3719 14.8614 76.7932 15.7873 77.3654 16.9785 77.8336 17.0097 78.7231 15.9745 79.3348 15.2154 80.3028 14.8373 81.2667 14.981 89.3814 15.5844 97.5065 16.1358 105.626 16.7548 112.305 17.2646 118.981 17.8107 125.653 18.3933 127.921 18.5858 130.173 18.9135 132.415 19.1372 133.513 19.1511 134.451 19.9325 134.663 21.0098 135.474 24.4794 135.854 28.1934 134.501 31.3717 133.076 34.7164 130.465 37.5617 126.251 37.853 125.508 37.8926 124.768 37.9794 124.035 38.1131 122.761 38.3784 121.643 38.3316 120.748 37.182 120.353 36.6618 119.708 36.615 119.708 37.4525 119.666 38.5605 118.984 38.7061 118.147 38.7945 113.185 39.3528 108.224 39.9094 103.265 40.4643 95.6547 41.307 88.0446 42.1913 80.4188 42.9559 74.6969 43.5333 68.975 44.4852 63.1595 44.3812 61.9787 44.3812 60.8031 44.2043 59.6223 44.1575 58.9996 44.1135 58.4368 43.7729 58.1086 43.242 57.5884 42.5242 57.0162 42.3889 56.2151 42.9455 54.5402 44.1107 51.0134 43.4657 49.8898 41.7231 46.5867 36.6046 43.5645 31.3196 40.6047 25.9983 39.7413 24.4377 40.4851 23.0125 41.0729 21.6132 41.3382 20.9786 41.9832 21.3011 42.4826 21.3791 42.7791 21.4311 43.1172 21.6288 43.3565 21.3791 43.5957 21.1294 43.32 20.8069 43.1744 20.5625 42.0092 18.4297 42.8675 16.7028 45.3071 16.3022 49.2916 15.652 53.323 15.496 57.3387 15.2619 61.0996 15.0694 64.8656 14.8353 68.6369 14.7053 70.6968 14.7261 72.7567 14.7625 74.8114 14.7053Z" fill="#774A0E" fill-opacity="0.6" transform="matrix(1 0 0 1.00394 0.0806374 0)"/><path d="M179.127 169.696C180.563 169.696 181.728 170.861 181.728 172.297L181.728 243.119C181.728 244.555 180.563 245.72 179.127 245.72L13.306 245.72C11.8696 245.72 10.7052 244.555 10.7052 243.119L10.7052 172.297C10.7052 170.861 11.8696 169.696 13.306 169.696Z" fill="#5B3A05" transform="matrix(1 0 0 1.00394 0.0806374 0)"/><path d="M181.728 172.297 181.728 239.342C181.728 240.778 180.563 241.943 179.127 241.943L13.306 241.943C11.8696 241.943 10.7052 240.778 10.7052 239.342L10.7052 172.297C10.7052 170.861 11.8696 169.696 13.306 169.696L179.127 169.696C180.563 169.696 181.728 170.861 181.728 172.297Z" fill="#724900" transform="matrix(1 0 0 1.00394 0.0806374 0)"/><path d="M10.7052 12.2397 181.728 12.2397 181.728 162.206 10.7052 162.206Z" fill="#4F4F4F" transform="matrix(1 0 0 1.00394 0.0806374 0)"/><path d="M13.306 12.2397 179.127 12.2397C180.563 12.2397 181.728 13.4041 181.728 14.8406L181.728 40.8908 181.728 40.8908 10.7052 40.8908 10.7052 40.8908 10.7052 14.8406C10.7052 13.4041 11.8696 12.2397 13.306 12.2397Z" fill="#724900" transform="matrix(1 0 0 1.00394 0.0806374 0)"/></g></svg>